<?xml version="1.0" encoding="UTF-8"?>
<svg version="1.1" xmlns="http://www.w3.org/2000/svg" width="100" height="100">
<path d="M0 0 C1.04800781 -0.01160156 1.04800781 -0.01160156 2.1171875 -0.0234375 C6.18628563 -0.00808241 9.34061531 0.4488966 13 2.25 C13.495 5.715 13.495 5.715 14 9.25 C13.01 9.58 12.02 9.91 11 10.25 C10.5374412 23.77304251 11.62129348 32.25826027 20.57421875 42.56152344 C23.04656683 45.48939318 25.22463965 48.62445365 27.4375 51.75 C28.05612915 52.59570557 28.05612915 52.59570557 28.68725586 53.45849609 C33.22240983 59.72297563 36.10707517 64.50047382 35 72.25 C29.43477231 78.67141657 21.21839657 80.49035511 13 81.25 C-20.80222808 83.00322135 -20.80222808 83.00322135 -31.81640625 75.2734375 C-34.72225862 72.58071563 -35.5584063 71.22434331 -36 67.25 C-34.09250414 61.02191111 -30.05796022 55.744515 -26.3125 50.5 C-25.88888184 49.90477539 -25.46526367 49.30955078 -25.02880859 48.69628906 C-22.83282266 45.65242896 -20.57671851 42.72094539 -18.12890625 39.875 C-11.40075955 31.7902019 -9.7399629 25.51923799 -10.35546875 14.98828125 C-10.99582753 11.27420034 -11.22973445 10.49010691 -14 8.25 C-14 5.1875 -14 5.1875 -13 2.25 C-8.84859724 -0.10088907 -4.64810383 -0.05145502 0 0 Z M-3 34.25 C-9.22224878 41.63674786 -14.62283813 49.41717959 -19.85742188 57.52148438 C-20.62005513 58.6752116 -21.4082653 59.81242627 -22.22070312 60.93164062 C-23.21988456 62.32158255 -24.11927973 63.78213288 -25 65.25 C-24.67 66.24 -24.34 67.23 -24 68.25 C-21.97538502 69.31199054 -21.97538502 69.31199054 -19.5625 70 C-18.35787109 70.39445312 -18.35787109 70.39445312 -17.12890625 70.796875 C-14.9599548 71.48981815 -14.9599548 71.48981815 -13 70.25 C-13.33 69.92 -13.66 69.59 -14 69.25 C-14.29219631 66.32803692 -14.47322215 64.10021156 -14 61.25 C-11.9375 58.75 -11.9375 58.75 -9 56.25 C-7.72817014 54.8951665 -6.47904497 53.51876234 -5.25 52.125 C-4.36054687 51.13113281 -4.36054687 51.13113281 -3.453125 50.1171875 C-0.55699874 46.39582097 -0.76062605 42.79810497 -1 38.25 C-1.95433955 36.07458049 -1.95433955 36.07458049 -3 34.25 Z " fill="#17A207" transform="translate(50,8.75)"/>
</svg>
