<?xml version="1.0" encoding="UTF-8"?>
<svg version="1.1" xmlns="http://www.w3.org/2000/svg" width="100" height="100">
<path d="M0 0 C4.76263619 0.0683305 6.61254067 1.19725837 10.1875 4.375 C11.5796875 4.313125 11.5796875 4.313125 13 4.25 C17.76090645 4.43670221 20.84451707 7.09584491 24.1875 10.375 C24.6825 11.86 24.6825 11.86 25.1875 13.375 C26.5178125 13.49875 26.5178125 13.49875 27.875 13.625 C31.67457224 14.48528051 33.44867589 15.63617589 36.1875 18.375 C37.0390625 20.15234375 37.0390625 20.15234375 37.1875 22.375 C35.75390625 25.171875 35.75390625 25.171875 33.75 28.125 C33.09128906 29.10984375 32.43257812 30.0946875 31.75390625 31.109375 C30.97853516 32.23085937 30.97853516 32.23085937 30.1875 33.375 C31.1775 33.87 31.1775 33.87 32.1875 34.375 C32.53778808 42.78191385 32.32866927 49.22136252 26.6875 55.8125 C24.87533553 57.7743984 23.57543175 59.18103412 21.1875 60.375 C20.8575 66.645 20.5275 72.915 20.1875 79.375 C13.42569276 81.62893575 13.42569276 81.62893575 10.12890625 81.640625 C9.05479492 81.64449219 9.05479492 81.64449219 7.95898438 81.6484375 C7.23001953 81.64070313 6.50105469 81.63296875 5.75 81.625 C5.02490234 81.63273437 4.29980469 81.64046875 3.55273438 81.6484375 C-7.57906898 81.60843102 -7.57906898 81.60843102 -10.8125 78.375 C-10.79350937 76.34722273 -10.77348664 74.31944848 -10.74755859 72.29174805 C-10.61807844 64.41102959 -10.61807844 64.41102959 -13.99609375 57.578125 C-16.6200391 55.53651611 -16.6200391 55.53651611 -19.3671875 53.98046875 C-24.60379938 50.54237373 -25.84838609 44.87181293 -27.2890625 39.078125 C-28.23094152 34.21409307 -27.98070355 31.10639476 -25.17578125 26.94921875 C-23.44878222 24.69676363 -21.67330526 22.51759822 -19.8125 20.375 C-20.4725 20.045 -21.1325 19.715 -21.8125 19.375 C-22.3671875 16.3203125 -22.3671875 16.3203125 -22.6875 12.5 C-22.80867188 11.24445312 -22.92984375 9.98890625 -23.0546875 8.6953125 C-22.8125 5.375 -22.8125 5.375 -21.10546875 3.4765625 C-18.7061333 2.3239005 -16.89366917 1.8576071 -14.25 1.625 C-13.48558594 1.54765625 -12.72117187 1.4703125 -11.93359375 1.390625 C-9.8125 1.375 -9.8125 1.375 -6.8125 2.375 C-4.33231247 -0.10518753 -3.42734049 0.05138442 0 0 Z M-7.8125 5.375 C-7.8125 7.355 -7.8125 9.335 -7.8125 11.375 C-7.4825 11.375 -7.1525 11.375 -6.8125 11.375 C-6.8125 9.395 -6.8125 7.415 -6.8125 5.375 C-7.1425 5.375 -7.4725 5.375 -7.8125 5.375 Z M8.1875 6.375 C9.1875 9.375 9.1875 9.375 9.1875 9.375 Z M7.1875 10.375 C8.1875 12.375 8.1875 12.375 8.1875 12.375 Z M2.1875 17.375 C3.6725 18.365 3.6725 18.365 5.1875 19.375 C5.1875 18.715 5.1875 18.055 5.1875 17.375 C4.1975 17.375 3.2075 17.375 2.1875 17.375 Z M3.1875 23.375 C2.8575 26.015 2.5275 28.655 2.1875 31.375 C4.53723818 29.47744856 4.53723818 29.47744856 4.3125 26.25 C4.250625 24.826875 4.250625 24.826875 4.1875 23.375 C3.8575 23.375 3.5275 23.375 3.1875 23.375 Z M-0.8125 32.375 C-3.4525 33.365 -6.0925 34.355 -8.8125 35.375 C-4.97630575 36.33404856 -3.48818464 36.29392116 0.1875 35.375 C-0.1425 34.385 -0.4725 33.395 -0.8125 32.375 Z M10.1875 38.375 C10.1875 41.375 10.1875 41.375 10.1875 41.375 Z " fill="#CC1616" transform="translate(44.8125,8.625)"/>
</svg>
