<?xml version="1.0" encoding="UTF-8"?>
<svg version="1.1" xmlns="http://www.w3.org/2000/svg" width="100" height="100">
<path d="M0 0 C4.56214838 2.03667338 6.92873375 4.62931617 9.26953125 9.0625 C10.06519862 11.17293324 10.31446222 13.00705434 10.5 15.25 C10.63371123 18.89883844 10.63371123 18.89883844 12.48828125 20.6953125 C16.15534181 22.6001309 19.60906461 22.52975714 23.6875 22.625 C31.89475361 22.89475361 31.89475361 22.89475361 33 24 C33.08843793 26.44830426 33.11528752 28.86820599 33.09765625 31.31640625 C33.0962413 32.04746078 33.09482635 32.77851532 33.09336853 33.53172302 C33.08775408 35.87535632 33.07519922 38.21889539 33.0625 40.5625 C33.05748686 42.14778508 33.05292363 43.73307166 33.04882812 45.31835938 C33.03777997 49.2122761 33.02050572 53.10612205 33 57 C28.21711921 57.19984717 23.43673686 57.34387445 18.65063477 57.43945312 C17.02780771 57.47934421 15.40526176 57.53368224 13.78344727 57.60351562 C2.30071229 58.08506109 -4.20102937 57.07269723 -13 49 C-14.21375734 48.12869293 -15.44439209 47.27979435 -16.69921875 46.46875 C-18.72095336 45.13678367 -20.74176161 43.80341037 -22.76171875 42.46875 C-23.50035156 41.9840625 -24.23898438 41.499375 -25 41 C-26.32 43.31 -27.64 45.62 -29 48 C-28.41138184 48.27489258 -27.82276367 48.54978516 -27.21630859 48.83300781 C-25.09122695 49.95196466 -23.39746139 51.16011774 -21.5390625 52.671875 C-20.90226562 53.17074219 -20.26546875 53.66960938 -19.609375 54.18359375 C-18.2836047 55.23011716 -16.96841344 56.29017978 -15.6640625 57.36328125 C-13.8103433 58.79468136 -12.13005429 60.02355842 -10 61 C-6.78378803 60.46111481 -6.78378803 60.46111481 -4 59 C0.23300837 58.58542702 3.67518922 59.15529159 7.28515625 61.45703125 C12.54138621 65.83563298 14.6525158 68.97192341 15.4375 75.8125 C15.31569106 80.75981676 13.0432596 84.22635809 10 88 C5.98997317 91.65620093 2.3844591 92.25887502 -3.015625 92.140625 C-7.83606918 91.79901872 -10.14794337 90.03575649 -13.25 86.5 C-16.06109389 83.08031877 -17.01667616 81.169898 -17.10546875 76.75 C-17.50262886 72.95305822 -18.21790679 71.24526503 -21.17578125 68.8125 C-22.53562468 67.84755723 -23.91588952 66.91091595 -25.3125 66 C-26.76711771 64.98464804 -28.22154275 63.96902001 -29.67578125 62.953125 C-30.76560303 62.21352539 -30.76560303 62.21352539 -31.87744141 61.45898438 C-34.99178275 59.3182777 -37.99393079 57.03892748 -41 54.75 C-41.969375 54.02296875 -42.93875 53.2959375 -43.9375 52.546875 C-44.9584375 51.78117187 -44.9584375 51.78117187 -46 51 C-44.34892841 46.45293118 -42.0735352 42.3766548 -39.6875 38.1875 C-39.28668213 37.47916016 -38.88586426 36.77082031 -38.47290039 36.04101562 C-35.76648562 31.28166621 -32.97087639 26.60006667 -30 22 C-26.74715202 22.6157468 -24.67585675 23.73488422 -22.0234375 25.6953125 C-21.27578125 26.24348633 -20.528125 26.79166016 -19.7578125 27.35644531 C-18.97148438 27.94006836 -18.18515625 28.52369141 -17.375 29.125 C-16.5603125 29.7137793 -15.745625 30.30255859 -14.90625 30.90917969 C-11.58555759 33.31349891 -8.33759167 35.70995646 -5.2265625 38.3828125 C2.23388804 44.63912014 10.67918627 44.07107374 20 44 C20 41.36 20 38.72 20 36 C19.43152344 36.05800781 18.86304687 36.11601563 18.27734375 36.17578125 C12.54444836 36.51075844 10.008086 35.63848307 5.609375 32.046875 C3.90810216 30.71211644 3.90810216 30.71211644 1.0625 31.1875 C0.051875 31.455625 -0.95875 31.72375 -2 32 C-7.43303919 32.53565175 -11.33498698 32.11000868 -16 29 C-19.98156083 25.06148307 -22.11537441 21.45436385 -22.375 15.8125 C-22.31560318 10.61103606 -20.49976787 6.81949975 -17 3 C-11.63105919 -0.95845636 -6.4365607 -0.76854456 0 0 Z M-8 12 C-8.66 12.66 -9.32 13.32 -10 14 C-9.67958603 16.60280568 -9.67958603 16.60280568 -9 19 C-7.02 19 -5.04 19 -3 19 C-2.32041397 16.60280568 -2.32041397 16.60280568 -2 14 C-2.66 13.34 -3.32 12.68 -4 12 C-5.32 12 -6.64 12 -8 12 Z M-5 73 C-5 74.65 -5 76.3 -5 78 C-2.60931266 79.10636395 -2.60931266 79.10636395 0 80 C2.16263073 79.1955029 2.16263073 79.1955029 2.75 77.125 C3.26802406 74.69990757 3.26802406 74.69990757 1 72 C-2.7763932 71.7018576 -2.7763932 71.7018576 -5 73 Z " fill="#1D2AD7" transform="translate(56,4)"/>
</svg>
