<?xml version="1.0" encoding="UTF-8"?>
<svg version="1.1" xmlns="http://www.w3.org/2000/svg" width="100" height="100">
<path d="M0 0 C4.57497669 1.20848441 8.653546 1.13118802 13.3515625 0.984375 C19.8086454 0.78446531 24.5416246 0.68414207 29.9765625 4.609375 C32.42290869 7.92941626 33.01863389 10.95236515 32.7265625 14.984375 C31.10718647 20.83826849 28.14971569 25.11132739 23.80078125 29.28125 C22.45513308 30.99657896 22.45513308 30.99657896 23.125 33.38671875 C23.32351562 34.24394531 23.52203125 35.10117187 23.7265625 35.984375 C22.27307443 45.99547821 16.39671276 53.24860568 8.765625 59.5078125 C1.01914579 65.11733193 -8.05912017 64.73200665 -17.2734375 63.984375 C-20.26171875 62.96484375 -20.26171875 62.96484375 -22.2734375 61.984375 C-22.2734375 60.994375 -22.2734375 60.004375 -22.2734375 58.984375 C-23.8203125 59.479375 -23.8203125 59.479375 -25.3984375 59.984375 C-31.94250444 61.59702007 -39.93302997 62.45772435 -46.40234375 60.26171875 C-49.69525062 58.22325259 -51.89378656 55.55523626 -53.2734375 51.984375 C-53.39501943 44.81104085 -50.43049039 39.70884127 -46.2734375 33.984375 C-45.56832031 33.3140625 -44.86320312 32.64375 -44.13671875 31.953125 C-42.06086789 29.75977314 -41.69594932 28.67083217 -41.2734375 25.734375 C-39.64376385 17.16453943 -35.30925962 9.86124009 -28.35546875 4.5078125 C-19.91066916 -1.07849593 -9.81164003 -3.04418426 0 0 Z M-17.2734375 8.984375 C-17.2734375 9.644375 -17.2734375 10.304375 -17.2734375 10.984375 C-16.36464844 11.26087891 -16.36464844 11.26087891 -15.4375 11.54296875 C-7.05775537 14.44364958 0.20756028 19.34323743 4.51171875 27.2734375 C4.91261719 28.16804688 5.31351563 29.06265625 5.7265625 29.984375 C6.85551126 29.05163391 7.97957126 28.11297378 9.1015625 27.171875 C9.72804688 26.64980469 10.35453125 26.12773438 11 25.58984375 C12.9486673 23.90211761 12.9486673 23.90211761 14.7265625 20.984375 C13.4065625 20.984375 12.0865625 20.984375 10.7265625 20.984375 C10.5203125 20.2625 10.3140625 19.540625 10.1015625 18.796875 C7.52689787 13.53051554 3.57296783 11.09225331 -1.7734375 9.171875 C-7.20025963 7.56021809 -11.77698589 7.69109227 -17.2734375 8.984375 Z M16.7265625 11.984375 C17.7265625 15.984375 17.7265625 15.984375 17.7265625 15.984375 Z M15.7265625 15.984375 C16.7265625 17.984375 16.7265625 17.984375 16.7265625 17.984375 Z M18.7265625 33.984375 C19.7265625 35.984375 19.7265625 35.984375 19.7265625 35.984375 Z M-5.2734375 35.984375 C-5.6034375 36.644375 -5.9334375 37.304375 -6.2734375 37.984375 C-5.2834375 37.654375 -4.2934375 37.324375 -3.2734375 36.984375 C-3.9334375 36.654375 -4.5934375 36.324375 -5.2734375 35.984375 Z M-17.8984375 41.796875 C-24.46537291 44.55383914 -31.18168614 47.23297909 -38.2734375 44.984375 C-38.9334375 43.994375 -39.5934375 43.004375 -40.2734375 41.984375 C-39.92898869 44.45704265 -39.92898869 44.45704265 -39.2734375 46.984375 C-34.20932024 49.51643363 -28.35433047 47.6926789 -23.2109375 46.171875 C-22.04433594 45.83542969 -20.87773438 45.49898437 -19.67578125 45.15234375 C-16.36079349 44.01436288 -13.36522485 42.62673997 -10.2734375 40.984375 C-13.89215973 39.77813426 -14.52613948 40.28201732 -17.8984375 41.796875 Z " fill="#0F94D7" transform="translate(60.2734375,18.015625)"/>
</svg>
