<?xml version="1.0" encoding="UTF-8"?>
<svg version="1.1" xmlns="http://www.w3.org/2000/svg" width="100" height="100">
<path d="M0 0 C3.5625 0.25 3.5625 0.25 6.5625 2.25 C5.6875 7 5.6875 7 4.5625 9.25 C10.5025 9.25 16.4425 9.25 22.5625 9.25 C21.9025 7.93 21.2425 6.61 20.5625 5.25 C20.5625 4.26 20.5625 3.27 20.5625 2.25 C24.2066774 -0.1794516 26.27491272 0.08820425 30.5625 0.25 C31.38087442 1.66328129 32.19196219 3.08078346 33 4.5 C33.67869141 5.68335938 33.67869141 5.68335938 34.37109375 6.890625 C37.62887597 13.34210192 37.67671696 21.57670154 36.01953125 28.52734375 C33.22619324 34.94021834 27.58936461 39.5684925 22.5625 44.25 C23.08199219 44.67410156 23.60148437 45.09820312 24.13671875 45.53515625 C29.49199544 50.03913202 34.29252732 54.44008197 36.5625 61.25 C37.41024111 71.15884283 36.10126966 78.94184551 30.5625 87.25 C27.5925 86.92 24.6225 86.59 21.5625 86.25 C20.5625 82.25 20.5625 82.25 23.5625 76.25 C16.9625 76.25 10.3625 76.25 3.5625 76.25 C4.5525 78.23 5.5425 80.21 6.5625 82.25 C6.2325 83.57 5.9025 84.89 5.5625 86.25 C1.1075 86.745 1.1075 86.745 -3.4375 87.25 C-8.83180333 78.25949445 -11.43351841 69.53347639 -8.890625 58.98046875 C-6.1164828 52.55545073 -0.4561172 47.93952755 4.5625 43.25 C5.0575 42.755 5.0575 42.755 5.5625 42.25 C4.9746875 42.14816406 4.386875 42.04632813 3.78125 41.94140625 C-1.35995529 40.33930531 -5.19148618 35.12298936 -7.875 30.625 C-11.23488951 23.10524728 -10.20434959 14.63050523 -7.5625 7.0625 C-4.91180451 0.35722215 -4.91180451 0.35722215 0 0 Z M1.5625 19.25 C1.5625 19.58 1.5625 19.91 1.5625 20.25 C9.4825 20.25 17.4025 20.25 25.5625 20.25 C25.5625 19.92 25.5625 19.59 25.5625 19.25 C17.6425 19.25 9.7225 19.25 1.5625 19.25 Z M6.5625 29.25 C7.8825 30.9 9.2025 32.55 10.5625 34.25 C10.8925 35.24 11.2225 36.23 11.5625 37.25 C15.8367558 35.6669423 17.82781794 32.74431596 20.5625 29.25 C15.9425 29.25 11.3225 29.25 6.5625 29.25 Z M19.5625 45.25 C19.2325 45.91 18.9025 46.57 18.5625 47.25 C19.5525 46.92 20.5425 46.59 21.5625 46.25 C20.9025 45.92 20.2425 45.59 19.5625 45.25 Z M13.5625 50.25 C12.18017557 51.87626404 10.84312485 53.5425002 9.5625 55.25 C12.2025 55.25 14.8425 55.25 17.5625 55.25 C16.9025 53.6 16.2425 51.95 15.5625 50.25 C14.9025 50.25 14.2425 50.25 13.5625 50.25 Z M1.5625 65.25 C1.5625 65.58 1.5625 65.91 1.5625 66.25 C9.4825 66.25 17.4025 66.25 25.5625 66.25 C25.5625 65.92 25.5625 65.59 25.5625 65.25 C17.6425 65.25 9.7225 65.25 1.5625 65.25 Z " fill="#EEB613" transform="translate(36.4375,5.75)"/>
</svg>
