<?xml version="1.0" encoding="UTF-8"?>
<svg version="1.1" xmlns="http://www.w3.org/2000/svg" width="100" height="100">
<path d="M0 0 C0.99 0 1.98 0 3 0 C4.5066972 2.7881022 6.00419804 5.58103958 7.5 8.375 C7.92925781 9.1690625 8.35851563 9.963125 8.80078125 10.78125 C9.20683594 11.54179687 9.61289062 12.30234375 10.03125 13.0859375 C10.40830078 13.7876709 10.78535156 14.4894043 11.17382812 15.21240234 C12 17 12 17 12 19 C13.9490625 19.3403125 13.9490625 19.3403125 15.9375 19.6875 C28.2925274 22.50599063 37.45419873 31.38696767 45.13671875 41.078125 C46.35782182 43.7965988 45.93758714 45.20008224 45 48 C43.4765625 50.3515625 43.4765625 50.3515625 41.625 52.625 C41.01914063 53.38039062 40.41328125 54.13578125 39.7890625 54.9140625 C38.25845922 56.69865235 36.69221213 58.37007789 35 60 C36.4547356 63.87929495 38.2498811 67.4833536 40.1953125 71.1328125 C41 73 41 73 41 76 C15.26 76 -10.48 76 -37 76 C-37.33 75.34 -37.66 74.68 -38 74 C-36.92481882 71.55667274 -35.80191434 69.23245477 -34.5625 66.875 C-34.22412109 66.21628906 -33.88574219 65.55757813 -33.53710938 64.87890625 C-32.69850074 63.24893453 -31.85015189 61.62398091 -31 60 C-31.79664063 59.23816406 -31.79664063 59.23816406 -32.609375 58.4609375 C-40.81908302 50.46096654 -40.81908302 50.46096654 -43 46 C-39.69534641 35.1140823 -30.15700737 28.14417781 -20.7265625 22.68359375 C-17.80003014 21.16426373 -15.34404832 20.06247072 -12.07421875 19.46875 C-7.37845321 17.22528387 -6.19737972 13.47793862 -4.125 8.875 C-3.7228125 8.02550781 -3.320625 7.17601562 -2.90625 6.30078125 C-1.91883053 4.20839237 -0.95124979 2.10901674 0 0 Z M-21.51171875 33.65234375 C-25.57325533 36.72031436 -29.06638012 39.79089322 -32 44 C-28.85556583 51.71815659 -20.70617045 56.85956396 -13.36328125 60.19921875 C-10.74058469 61.08790105 -9.55827009 60.94750744 -7 60 C-7.928125 59.6596875 -7.928125 59.6596875 -8.875 59.3125 C-11.65974437 57.59251083 -11.98038343 56.05884971 -13 53 C-13.37125 52.401875 -13.7425 51.80375 -14.125 51.1875 C-15.78181904 47.04545239 -15.64567245 43.02506358 -14.3125 38.84375 C-12.11311425 33.93178849 -9.70017329 31.56373088 -5 29 C-10.9580329 26.92764073 -16.54678271 30.38614166 -21.51171875 33.65234375 Z M9 28 C9.99 29.65 10.98 31.3 12 33 C11.278125 32.773125 10.55625 32.54625 9.8125 32.3125 C6.16246621 31.90694069 4.85504876 32.76225908 2 35 C0.07136161 37.54229606 -0.00902291 38.78345018 0.125 42 C1.16692426 45.57231176 1.89642804 46.93095202 5 49 C10.17957419 49.76463822 10.17957419 49.76463822 14.8515625 47.87109375 C16.70034372 46.37587705 16.70034372 46.37587705 19 44 C17.88127212 51.51384394 16.00419541 55.92096166 9.8359375 60.6640625 C9.23007812 61.10492188 8.62421875 61.54578125 8 62 C19.37377635 60.79107366 27.72195637 55.30803043 34.85546875 46.50390625 C35.23316406 46.00761719 35.61085937 45.51132812 36 45 C31.57214451 37.25125289 24.30369842 32.15309423 16 29 C13.63437012 28.46582551 11.4255825 28.20213187 9 28 Z M-2 62 C-2 62.33 -2 62.66 -2 63 C0.31 63 2.62 63 5 63 C5 62.67 5 62.34 5 62 C2.69 62 0.38 62 -2 62 Z " fill="#7922B5" transform="translate(48,12)"/>
</svg>
